Land_normalized_pl05_filtered_grf
version=1
nRows=27
nColumns=37
inDegrees=yes
endheader
time		1_ground_force_vx		1_ground_force_vy		1_ground_force_vz		1_ground_force_px		1_ground_force_py		1_ground_force_pz		1_ground_torque_x		1_ground_torque_y		1_ground_torque_z		2_ground_force_vx		2_ground_force_vy		2_ground_force_vz		2_ground_force_px		2_ground_force_py		2_ground_force_pz		2_ground_torque_x		2_ground_torque_y		2_ground_torque_z		3_ground_force_vx		3_ground_force_vy		3_ground_force_vz		3_ground_force_px		3_ground_force_py		3_ground_force_pz		3_ground_torque_x		3_ground_torque_y		3_ground_torque_z		4_ground_force_vx		4_ground_force_vy		4_ground_force_vz		4_ground_force_px		4_ground_force_py		4_ground_force_pz		4_ground_torque_x		4_ground_torque_y		4_ground_torque_z		
1.161167		-11.520256		983.255268		107.670952		0.152818		0.000000		0.211718		-0.356025		30.387086		3.327500		72.383531		876.963041		152.559842		-0.189967		0.000000		0.214277		2.472122		29.950992		5.210388		0.292378		-0.524240		-1.553151		0.413317		1.262953		1.874232		0.023443		-0.016397		0.017425		-1.203182		-1.673774		-3.190163		-0.353480		1.256106		1.901803		0.016444		-0.008820		0.032290		
1.164222		-12.975081		958.469969		116.061849		0.152495		0.000000		0.210099		-0.395042		29.182264		3.533661		74.132843		873.647245		151.157130		-0.190589		0.000000		0.214651		2.543576		29.975725		5.186354		0.306953		-0.457591		-1.495378		0.413269		1.262952		1.874284		0.022956		-0.017557		0.016585		-1.171432		-1.667417		-3.268758		-0.353508		1.256114		1.901863		0.016188		-0.009086		0.032381		
1.167278		-14.913264		932.211182		125.962273		0.152112		0.000000		0.208290		-0.445893		27.872881		3.766186		75.744432		868.320633		150.260501		-0.191276		0.000000		0.214982		2.619513		30.029571		5.196535		0.316121		-0.372967		-1.427385		0.413214		1.262947		1.874324		0.022978		-0.018643		0.016242		-1.130360		-1.678800		-3.322304		-0.353537		1.256122		1.901911		0.016081		-0.009561		0.032613		
1.170333		-17.228753		905.766626		136.875458		0.151709		0.000000		0.206372		-0.504353		26.515933		4.006911		77.204131		861.236172		149.776802		-0.192015		0.000000		0.215279		2.698277		30.100066		5.234678		0.322613		-0.276643		-1.361691		0.413154		1.262940		1.874354		0.023491		-0.019568		0.016519		-1.085519		-1.705568		-3.350666		-0.353566		1.256130		1.901944		0.016197		-0.010243		0.032890		
1.173389		-19.860260		880.380930		148.271553		0.151333		0.000000		0.204437		-0.567640		25.163296		4.237888		78.497924		852.741207		149.588924		-0.192787		0.000000		0.215551		2.777505		30.172638		5.292925		0.330861		-0.175745		-1.310119		0.413093		1.262930		1.874372		0.024396		-0.020255		0.017436		-1.043723		-1.743066		-3.355347		-0.353595		1.256140		1.901959		0.016590		-0.011162		0.033159		
1.176444		-22.793638		857.168097		159.628964		0.151037		0.000000		0.202584		-0.634421		23.858082		4.443019		79.612209		843.247249		149.569471		-0.193571		0.000000		0.215808		2.854287		30.232391		5.362419		0.346423		-0.077598		-1.282390		0.413036		1.262917		1.874380		0.025538		-0.020670		0.018882		-1.011414		-1.784982		-3.339295		-0.353622		1.256150		1.901958		0.017298		-0.012335		0.033425		
1.179500		-26.054851		837.048696		170.468891		0.150875		0.000000		0.200910		-0.704460		22.631783		4.609069		80.533011		833.195687		149.595278		-0.194343		0.000000		0.216059		2.925346		30.265667		5.434019		0.374806		0.010930		-1.284579		0.412985		1.262903		1.874379		0.026732		-0.020841		0.020633		-0.993268		-1.824274		-3.306454		-0.353646		1.256161		1.901940		0.018335		-0.013727		0.033726		
1.182556		-29.696388		820.726870		180.375923		0.150890		0.000000		0.199503		-0.778055		21.503607		4.725945		81.243652		823.023679		149.559929		-0.195078		0.000000		0.216310		2.987173		30.260978		5.499029		0.420107		0.084126		-1.317661		0.412943		1.262888		1.874371		0.027799		-0.020858		0.022379		-0.991341		-1.854098		-3.261055		-0.353668		1.256172		1.901906		0.019693		-0.015254		0.034110		
1.185611		-33.772940		808.642603		189.022986		0.151117		0.000000		0.198429		-0.855377		20.481191		4.787507		81.726363		813.131762		149.384837		-0.195750		0.000000		0.216562		3.036369		30.210156		5.550073		0.483542		0.138326		-1.376226		0.412912		1.262869		1.874355		0.028605		-0.020842		0.023809		-1.004632		-1.868705		-3.206817		-0.353687		1.256182		1.901857		0.021330		-0.016806		0.034599		
1.188667		-38.322393		801.013140		196.172601		0.151570		0.000000		0.197731		-0.935984		19.564477		4.791409		81.963764		803.856005		149.025144		-0.196336		0.000000		0.216816		3.069993		30.108808		5.581809		0.562802		0.172149		-1.449000		0.412892		1.262850		1.874333		0.029081		-0.020906		0.024668		-1.029701		-1.863914		-3.145993		-0.353703		1.256190		1.901796		0.023174		-0.018290		0.035171		
1.191722		-43.346321		797.844166		201.682184		0.152243		0.000000		0.197424		-1.018558		18.748460		4.739279		81.946211		795.452701		148.470922		-0.196823		0.000000		0.217067		3.086135		29.957131		5.591487		0.652079		0.186329		-1.520428		0.412882		1.262830		1.874304		0.029227		-0.021106		0.024818		-1.061495		-1.837567		-3.079048		-0.353715		1.256195		1.901728		0.025130		-0.019664		0.035763		
1.194778		-48.798411		798.957458		205.502593		0.153110		0.000000		0.197494		-1.100947		18.025932		4.636498		81.679275		788.090920		147.742734		-0.197200		0.000000		0.217311		3.084408		29.760232		5.579125		0.742798		0.183139		-1.573656		0.412879		1.262808		1.874268		0.029095		-0.021407		0.024246		-1.094508		-1.789813		-3.005007		-0.353726		1.256195		1.901653		0.027088		-0.020942		0.036293		
1.197833		-54.580982		804.021721		207.671424		0.154126		0.000000		0.197905		-1.180507		17.390264		4.491747		81.188477		781.853869		146.881815		-0.197470		0.000000		0.217539		3.066177		29.527616		5.547162		0.824695		0.165493		-1.594109		0.412883		1.262785		1.874224		0.028771		-0.021673		0.023071		-1.123882		-1.723293		-2.922485		-0.353734		1.256189		1.901575		0.028938		-0.022187		0.036697		
1.200889		-60.549086		812.583651		208.302256		0.155231		0.000000		0.198594		-1.254632		16.837770		4.316299		80.519412		776.747046		145.936892		-0.197639		0.000000		0.217745		3.034384		29.271809		5.499650		0.887065		0.136022		-1.572592		0.412890		1.262763		1.874171		0.028346		-0.021685		0.021505		-1.146200		-1.643032		-2.830993		-0.353741		1.256177		1.901497		0.030575		-0.023479		0.036957		
1.203944		-66.520835		824.097325		207.571060		0.156362		0.000000		0.199490		-1.321279		16.368876		4.122951		79.733692		772.710266		144.950944		-0.197720		0.000000		0.217922		2.993092		29.006470		5.441258		0.920193		0.096506		-1.507081		0.412897		1.262741		1.874111		0.027901		-0.021188		0.019814		-1.159806		-1.555942		-2.731885		-0.353745		1.256158		1.901419		0.031903		-0.024887		0.037124		
1.207000		-72.291857		837.951645		205.700853		0.157457		0.000000		0.200516		-1.379332		15.988154		3.924781		78.902783		769.630613		143.951058		-0.197728		0.000000		0.218068		2.946904		28.744578		5.376361		0.916871		0.047771		-1.402948		0.412903		1.262722		1.874045		0.027490		-0.019947		0.018266		-1.164679		-1.469858		-2.628514		-0.353749		1.256135		1.901343		0.032832		-0.026450		0.037297		
1.210056		-77.650167		853.500307		202.943874		0.158459		0.000000		0.201594		-1.428717		15.703965		3.734074		78.101838		767.355991		142.943244		-0.197681		0.000000		0.218184		2.900458		28.497193		5.308464		0.873589		-0.010051		-1.271754		0.412908		1.262704		1.873972		0.027130		-0.017802		0.017071		-1.162148		-1.392389		-2.525555		-0.353751		1.256105		1.901269		0.033297		-0.028168		0.037600		
1.213111		-82.397926		870.077698		199.574161		0.159324		0.000000		0.202655		-1.470387		15.526554		3.561422		77.402788		765.698005		141.912736		-0.197591		0.000000		0.218270		2.858012		28.272541		5.239970		0.791719		-0.076920		-1.129244		0.412911		1.262690		1.873893		0.026792		-0.014716		0.016348		-1.154794		-1.329883		-2.427834		-0.353751		1.256072		1.901196		0.033278		-0.030006		0.038132		
1.216167		-86.365216		887.048666		195.867458		0.160021		0.000000		0.203643		-1.505918		15.467170		3.415290		76.867447		764.448634		140.828732		-0.197474		0.000000		0.218330		2.823094		28.075735		5.172186		0.677197		-0.152421		-0.992169		0.412914		1.262679		1.873812		0.026422		-0.010765		0.016107		-1.146213		-1.287055		-2.339317		-0.353749		1.256035		1.901125		0.032812		-0.031919		0.038949		
1.219222		-89.425313		903.836717		192.096028		0.160531		0.000000		0.204515		-1.537064		15.535373		3.301802		76.539851		763.387414		139.651575		-0.197337		0.000000		0.218368		2.798198		27.908455		5.105482		0.539857		-0.235127		-0.875316		0.412919		1.262672		1.873729		0.025954		-0.006133		0.016260		-1.140810		-1.266936		-2.262543		-0.353744		1.255996		1.901056		0.031990		-0.033866		0.040039		
1.222278		-91.505251		919.957770		188.519472		0.160848		0.000000		0.205244		-1.565222		15.736123		3.224676		76.438488		762.294332		138.340571		-0.197186		0.000000		0.218385		2.784481		27.768661		5.039435		0.392114		-0.322102		-0.788697		0.412927		1.262667		1.873645		0.025347		-0.001080		0.016640		-1.143103		-1.270843		-2.198528		-0.353735		1.255958		1.900989		0.030942		-0.035809		0.041335		
1.225333		-92.590486		935.047213		185.371196		0.160977		0.000000		0.205811		-1.591034		16.067440		3.185332		76.550613		760.966141		136.861069		-0.197019		0.000000		0.218380		2.781545		27.650491		4.972989		0.247429		-0.408732		-0.735780		0.412939		1.262665		1.873564		0.024603		0.004090		0.017051		-1.156644		-1.298198		-2.146977		-0.353723		1.255919		1.900923		0.029808		-0.037704		0.042734		
1.228389		-92.722926		948.875098		182.840336		0.160927		0.000000		0.206210		-1.614267		16.519534		3.183171		76.830584		759.235339		135.189775		-0.196830		0.000000		0.218349		2.787360		27.544525		4.904591		0.118843		-0.489041		-0.713317		0.412956		1.262666		1.873487		0.023791		0.009060		0.017302		-1.182965		-1.346269		-2.106660		-0.353704		1.255883		1.900859		0.028703		-0.039483		0.044122		
1.231444		-91.993221		961.345809		181.053109		0.160719		0.000000		0.206439		-1.633986		17.075468		3.215869		77.202813		756.989451		133.317203		-0.196612		0.000000		0.218285		2.798346		27.438355		4.832306		0.017714		-0.556564		-0.712695		0.412978		1.262668		1.873415		0.023046		0.013532		0.017258		-1.220929		-1.410032		-2.075966		-0.353680		1.255852		1.900798		0.027693		-0.041055		0.045398		
1.234500		-90.529409		972.480504		180.059472		0.160375		0.000000		0.206505		-1.648872		17.712425		3.279541		77.568502		754.187146		131.246201		-0.196351		0.000000		0.218184		2.809593		27.317263		4.753843		-0.047437		-0.605618		-0.722258		0.413003		1.262671		1.873349		0.022558		0.017260		0.016866		-1.266531		-1.482478		-2.053476		-0.353649		1.255823		1.900739		0.026796		-0.042308		0.046490		
1.237556		-88.483026		982.380376		179.831243		0.159923		0.000000		0.206420		-1.657571		18.403188		3.368824		77.813884		750.866493		128.985661		-0.196034		0.000000		0.218039		2.815123		27.164582		4.666398		-0.071933		-0.632490		-0.729826		0.413032		1.262675		1.873290		0.022532		0.020073		0.016186		-1.313166		-1.555504		-2.038255		-0.353613		1.255800		1.900681		0.025988		-0.043138		0.047350		
1.240611		-86.021586		991.191207		180.262593		0.159396		0.000000		0.206207		-1.659123		19.117491		3.476793		77.821661		747.149534		126.543138		-0.195645		0.000000		0.217847		2.808343		26.962315		4.566552		-0.056286		-0.636518		-0.724986		0.413063		1.262680		1.873239		0.023137		0.021885		0.015379		-1.352650		-1.621302		-2.029640		-0.353570		1.255782		1.900625		0.025234		-0.043474		0.047964		
